<?xml version="1.0" encoding="utf-8"?>
<!-- Generator: Adobe Illustrator 22.1.0, SVG Export Plug-In . SVG Version: 6.00 Build 0)  -->
<svg version="1.1" id="Layer_1" xmlns="http://www.w3.org/2000/svg" xmlns:xlink="http://www.w3.org/1999/xlink" x="0px" y="0px"
	 viewBox="0 0 283.5 283.5" style="enable-background:new 0 0 283.5 283.5;" xml:space="preserve">
<style type="text/css">
	.st0{fill:#231F20;}
</style>
<g id="Layer_2_1_">
</g>
<path class="st0" d="M148.2,70.1l0-9l32.4,0c1.2,0,2.3-0.7,2.7-1.8c0.1-0.4,0.2-0.7,0.2-1.1c0-0.8-0.3-1.5-0.9-2.1l-39.2-39.1
	c-1.2-1.1-3-1.1-4.2,0L100.2,56c-0.6,0.6-0.9,1.3-0.9,2.1c0,0.4,0.1,0.8,0.2,1.1c0.5,1.1,1.5,1.8,2.7,1.8l32.7,0l0,9
	c-36.6,3.3-65.3,34-65.3,71.4c0,39.6,32.1,71.8,71.8,71.8c39.6,0,71.8-32.1,71.8-71.8C213.2,104.1,184.7,73.5,148.2,70.1z"/>
</svg>
